<svg xmlns="http://www.w3.org/2000/svg" viewBox="0 0 300 95.41" fill="currentColor">
  <path d="M292.54,7.67h0l-.11-.11h0l-.11-.11h0c-4.67-4.61-11.08-7.46-18.16-7.46-14.27,0-25.84,11.57-25.84,25.84,0,6.88,2.69,13.12,7.07,17.75l-10.5,11.3.21.21,11.3-10.5c4.63,4.38,10.88,7.07,17.76,7.07,14.27,0,25.84-11.57,25.84-25.84,0-7.08-2.85-13.49-7.46-18.16h0ZM295.36,19.55l-10.44-1.35-.18-.42,5.49-7.12c2.42,2.56,4.16,5.59,5.13,8.89h0ZM289.33,9.76l-7.12,5.49-.42-.17-1.35-10.45c3.3.97,6.33,2.71,8.89,5.13h0ZM289.79,41.46c-4.18,4.18-9.72,6.47-15.63,6.47s-10.92-2.08-15.01-5.88l18.65-17.33.42.18,1.64,12.66h.3l1.64-12.65-.96-5.52-.22-.22-5.51-.96h0l-12.66,1.64v.3l12.66,1.64.17.42-17.33,18.65c-3.8-4.1-5.88-9.39-5.88-15.01,0-5.9,2.3-11.45,6.47-15.63s9.72-6.47,15.63-6.47c1.86,0,3.68.23,5.44.67l-1.38,10.68-.42.17-10.11-7.8-.21.21,7.8,10.11,7.57-.98.36.36-.98,7.57,10.11,7.79.21-.21-7.79-10.1.18-.43,10.67-1.38c.44,1.76.67,3.58.67,5.44,0,5.9-2.3,11.45-6.47,15.63h0ZM88.37,76.47h15.5v18.21h-3.69l-.49-4.18c-1.72,2.46-5.02,4.92-10.83,4.92-10.33,0-16.98-7.63-16.98-17.96s6.64-17.96,16.98-17.96c7.33,0,12.06,3.64,14.27,9.1h-5.36c-1.57-3-4.38-4.92-8.91-4.92-8.12,0-12.06,6.64-12.06,13.78s3.94,13.78,12.06,13.78c7.63,0,10.33-5.66,10.33-10.58h-10.83v-4.18h0ZM132.31,60.23h4.92v34.44h-4.92v-14.02h-17.7l-.5.5v13.52h-4.92v-34.44h4.92v16.24h17.68l.52-.52v-15.72h0ZM195.81,85.18c0,5.9-4.82,10.23-13.78,10.23s-13.78-4.43-14.02-9.84h4.92c.2,3.79,3.3,5.95,9.1,5.95s8.91-2.41,8.91-5.95c0-3.99-2.9-4.82-7.33-5.56l-3.94-.64c-6.74-1.03-10.92-4.08-10.92-10.19,0-5.27,4.28-9.69,13.28-9.69s12.69,5.07,13.04,9.1h-5.02c-.2-2.76-2.51-5.22-8.02-5.22-6.05,0-8.51,2.51-8.51,5.46,0,3.64,2.76,5.22,7.13,5.86l3.94.59c6.64,1.03,11.22,3.4,11.22,9.89h0ZM62.89,60.23h4.92v34.44h-4.92v-34.44h0ZM22.89,76.7v-.53c2.38-1.5,3.68-3.85,3.68-6.84,0-5.66-4.18-9.1-10.33-9.1H0v34.44h17.22c6.3,0,10.58-3.69,10.58-9.6,0-3.97-1.78-6.83-4.91-8.38h0ZM4.92,64.81l.4-.4h10.68c3.94,0,5.66,1.97,5.66,5.17s-1.97,5.17-5.9,5.17H4.92v-9.94h0ZM16.98,90.49H4.92v-11.17l.4-.4h11.41c4.43,0,6.15,2.71,6.15,5.9s-1.48,5.66-5.91,5.66h0ZM230.74,60.23l-14.02,34.44h5.17l3.2-8.12h16.24l3.2,8.12h5.17l-14.02-34.44h-4.92ZM239.65,82.37h-12.89l3.15-7.92c1.28-3.15,2.51-6.59,3.2-8.81h.2c.69,2.21,1.92,5.66,3.2,8.81l3.15,7.92ZM170.04,60.7l-3.38,3.71h-9.45l-.53.53v29.73h-4.92v-30.26h-11.56v-4.18h29.85v.47h0ZM223.59,64.41h-11.03l-.53.53v29.73h-4.92v-30.26h-9.98l-3.38-3.71v-.47h29.85v4.18h0ZM268.79,80.65c6.89,0,11.07-4.06,11.07-10.21,0-6.82-4.18-10.21-11.07-10.21h-16.48v34.44h4.92v-11.26l15.09,11.26h7.55v-.47l-19.04-13.56h7.97,0ZM257.22,76.47v-11.66l.4-.4h11.17c4.18,0,6.15,2.58,6.15,6.03s-1.97,6.03-6.15,6.03h-11.56ZM48.06,80.65c6.89,0,11.07-4.06,11.07-10.21,0-6.82-4.18-10.21-11.07-10.21h-16.48v34.44h4.92v-11.26l15.09,11.26h7.55v-.47l-19.04-13.56h7.97,0ZM36.5,76.47v-11.66l.4-.4h11.17c4.18,0,6.15,2.58,6.15,6.03s-1.97,6.03-6.15,6.03h-11.56Z"/>
</svg>
